# xmcd
#
# Track frame offsets:
#	150
#	10963
#	20425
#	29775
#	38937
#	49539
#	61497
#	70412
#	80834
#	92956
#	102201
#	110627
#
# Disc length: 1642 seconds
#
# Revision: 1
# Processed by: cddbd v1.5.2PL0 Copyright (c) Steve Scherf et al.
# Submitted via: audiograbber 1.83.01
#
DISCID=a706680c
DTITLE=Big Tom - The Image Of Me
DYEAR=2009
DGENRE=
TTITLE0=The Image Of Me
TTITLE1=Each Season Changes You
TTITLE2=My Shoes Keep Walking Back To You
TTITLE3=Mansion On The Hill
TTITLE4=Hill Above The City
TTITLE5=Why Must You Throw Dirt In My Face
TTITLE6=May You Never Be Alone
TTITLE7=Poor Little Orphan Boy
TTITLE8=Dim Lights
TTITLE9=Wild And Wicked World
TTITLE10=Deep Water
TTITLE11=Today I Started Loving You Again
EXTD=
EXTT0=
EXTT1=
EXTT2=
EXTT3=
EXTT4=
EXTT5=
EXTT6=
EXTT7=
EXTT8=
EXTT9=
EXTT10=
EXTT11=
PLAYORDER=
